<svg class="o-logo c-header__logo" xmlns="http://www.w3.org/2000/svg" viewBox="0 0 118.001 25.84">
<g class="c-header__logo-text" transform="translate(26.626)">
<path fill="#6b7073" d="M136.232 27.519l-4.383-11.587h3.692l2.369 6.668 2.369-6.672h3.711l-4.52 11.587z" transform="translate(-131.849 -12.715)"></path>
<path fill="#6b7073" d="M197.079 27.6q-2.764 0-2.764-2.621v-6.23a2.4 2.4 0 0 1 2.7-2.719h5.093q2.686 0 2.686 2.739V24.9a2.363 2.363 0 0 1-2.646 2.7zm4.343-7.561a.523.523 0 0 0-.591-.592h-2.506a.524.524 0 0 0-.594.592v3.514c0 .421.2.632.594.632h2.506a.523.523 0 0 0 .591-.593z" transform="translate(-181.701 -12.793)"></path>
<path fill="#6b7073" d="M256.81 27.6q-2.764 0-2.764-2.621v-6.23a2.4 2.4 0 0 1 2.7-2.719h5.092q2.686 0 2.686 2.739V24.9q0 2.7-2.646 2.7zm4.343-7.561a.524.524 0 0 0-.594-.592h-2.506a.524.524 0 0 0-.592.592v3.514c0 .421.2.632.592.632h2.506a.524.524 0 0 0 .594-.593z" transform="translate(-229.369 -12.793)"></path>
<path fill="#6b7073" d="M314.158 27.519v-8.864a2.863 2.863 0 0 1 .648-2.042 2.736 2.736 0 0 1 2.06-.681h3.826v3.415h-2.526a.523.523 0 0 0-.592.592v7.58z" transform="translate(-277.343 -12.715)"></path>
<path fill="#6b7073" d="M354.81 14.8q-2.825 0-2.825-2.547V0h3.415v3.335h2.685v3.119H355.4v4.264q0 .671.513.671h2.151V14.8z" transform="translate(-307.531)"></path>
<path fill="#6b7073" d="M400.591 27.6v-7.563a.523.523 0 0 0-.592-.592h-2.171V27.6h-3.376v-8.155h-2.131a.523.523 0 0 0-.592.592V27.6h-3.375v-8.851a2.4 2.4 0 0 1 2.7-2.719h10.186q2.684 0 2.685 2.739V27.6z" transform="translate(-336.555 -12.793)"></path>
<path fill="#6b7073" d="M475.53 27.519q-2.524 0-2.525-2.634v-1.721q0-2.691 2.525-2.692h3.889a1.588 1.588 0 0 1 .652.139v-.858a.52.52 0 0 0-.592-.584h-6.02v-3.237h7.265a2.424 2.424 0 0 1 2.762 2.723V24.8q0 2.723-2.665 2.724zm4.541-4.043a.348.348 0 0 0-.393-.394h-2.867a.347.347 0 0 0-.392.394v.81a.347.347 0 0 0 .392.395h2.867a.348.348 0 0 0 .393-.395z" transform="translate(-404.112 -12.715)"></path>
<path fill="#6b7073" d="M539.929 27.6v-7.563a.523.523 0 0 0-.592-.592h-2.409a.524.524 0 0 0-.593.592V27.6h-3.414v-8.851a2.4 2.4 0 0 1 2.7-2.719h4.993q2.685 0 2.685 2.739V27.6z" transform="translate(-451.929 -12.793)"></path>
</g>
<g transform="translate(0 1.779)">
<path fill="#ce0538" d="M22.58 47.522l-7.366-5.063 2.678-1.84a5.147 5.147 0 0 0-2.874-.818 5.147 5.147 0 0 0-2.875.818 2.23 2.23 0 0 0-.036 3.925l-.009.006 5.863 4.03-7.869 5.41-5.826-4 2.671-1.837a5.131 5.131 0 0 0-2.874-.819 5.131 5.131 0 0 0-2.873.819 2.23 2.23 0 0 0-.038 3.925l7.4 5.088a2.921 2.921 0 0 0 3.08 0l10.948-7.528a1.2 1.2 0 0 0 0-2.116z" transform="translate(0 -33.542)"></path>
<path fill="#6b7073" d="M29.909 14.337l-7.4-5.089a2.925 2.925 0 0 0-3.08 0L8.481 16.773a1.2 1.2 0 0 0 0 2.116l7.366 5.063-2.678 1.839a5.134 5.134 0 0 0 2.875.819 5.125 5.125 0 0 0 2.873-.819 2.229 2.229 0 0 0 .038-3.925l.009-.006-5.864-4.031 7.869-5.408 5.825 4-2.671 1.836a5.445 5.445 0 0 0 5.746 0 2.229 2.229 0 0 0 .04-3.92z" transform="translate(-6.26 -8.808)"></path>
</g>
<g class="c-header__logo-text" transform="translate(28.579 18.187)">
<path fill="#ce0538" d="M142.693 93.342c-.64-.162-1.138-.448-1.138-1.03v-1.2a1.117 1.117 0 0 1 1.192-1.049h2.146a1.124 1.124 0 0 1 1.192 1.049v.724l-1.029.152V91.3a.438.438 0 0 0-.466-.41h-1.55a.434.434 0 0 0-.455.41v.811c0 .248.184.352.444.419.792.2 1.117.276 1.962.486.618.153 1.128.448 1.128 1.03v1.316a1.118 1.118 0 0 1-1.192 1.048h-2.212a1.124 1.124 0 0 1-1.192-1.048v-.716l1.029-.152v.677a.438.438 0 0 0 .466.41h1.6a.437.437 0 0 0 .466-.41v-.935c0-.229-.119-.323-.455-.409-.863-.218-1.112-.276-1.936-.485z" transform="translate(-141.523 -90.062)"></path>
<path fill="#ce0538" d="M172.7 90.062h5.148v.838h-2.059v5.51h-1.029V90.9h-2.06z" transform="translate(-166.406 -90.062)"></path>
<path fill="#ce0538" d="M207.536 90.062h4.251v.838h-3.22v1.85h2.927v.839h-2.927v1.983h3.23v.839h-4.26z" transform="translate(-194.206 -90.062)"></path>
<path fill="#ce0538" d="M239.855 90.062h4.245v.838h-3.22v1.85h2.927v.839h-2.927v1.983h3.231v.839h-4.26z" transform="translate(-219.998 -90.062)"></path>
<path fill="#ce0538" d="M272.166 90.062h1.034v5.509h3.187v.839h-4.216z" transform="translate(-245.784 -90.062)"></path>
<path fill="#ce0538" d="M320.752 93.151h2.406v2.211a1.124 1.124 0 0 1-1.192 1.048h-2.309a1.114 1.114 0 0 1-1.181-1.048v-4.251a1.114 1.114 0 0 1 1.181-1.049h2.309a1.124 1.124 0 0 1 1.192 1.049v.7l-1.03.143V91.3a.42.42 0 0 0-.455-.4h-1.7a.43.43 0 0 0-.465.4v3.87a.429.429 0 0 0 .465.4h1.7a.42.42 0 0 0 .455-.4v-1.189h-1.376z" transform="translate(-282.742 -90.062)"></path>
<path fill="#ce0538" d="M355.836 93.847h-1.658v2.564h-1.029v-6.349h3.565a1.117 1.117 0 0 1 1.192 1.049V92.8a1.063 1.063 0 0 1-.954 1.029l1.431 2.583h-1.126zm1.041-2.545a.424.424 0 0 0-.465-.4h-2.234v2.116h2.234a.423.423 0 0 0 .465-.4z" transform="translate(-310.413 -90.062)"></path>
<path fill="#ce0538" d="M388.948 95.362v-4.251a1.114 1.114 0 0 1 1.181-1.049h2.428a1.123 1.123 0 0 1 1.192 1.049v4.251a1.123 1.123 0 0 1-1.192 1.048h-2.428a1.114 1.114 0 0 1-1.181-1.048zm3.772-4.061a.42.42 0 0 0-.455-.4h-1.821a.431.431 0 0 0-.467.4v3.87a.43.43 0 0 0 .467.4h1.821a.42.42 0 0 0 .455-.4z" transform="translate(-338.984 -90.062)"></path>
<path fill="#ce0538" d="M428.124 90.062h1.03v5.3a1.124 1.124 0 0 1-1.192 1.048h-2.3a1.113 1.113 0 0 1-1.181-1.048v-5.3h1.029v5.109a.43.43 0 0 0 .466.4h1.68a.43.43 0 0 0 .466-.4z" transform="translate(-367.342 -90.062)"></path>
<path fill="#ce0538" d="M459.637 90.062h3.479a1.125 1.125 0 0 1 1.193 1.049v1.706a1.125 1.125 0 0 1-1.193 1.048h-2.449v2.545h-1.03zm3.642 1.239a.424.424 0 0 0-.466-.4h-2.146v2.126h2.146a.424.424 0 0 0 .466-.4z" transform="translate(-395.397 -90.062)"></path>
</g>
</svg>
